<svg width="20" height="13" viewBox="0 0 20 13" fill="none" xmlns="http://www.w3.org/2000/svg">
<path d="M10 12.5C5.73036 12.5 2.0873 10.0139 0.543505 6.5C2.0873 2.98615 5.73036 0.5 10 0.5C14.2696 0.5 17.9127 2.98615 19.4565 6.5C17.9127 10.0139 14.2696 12.5 10 12.5ZM4.95455 6.5C4.95455 9.19039 7.23755 11.3333 10 11.3333C12.7624 11.3333 15.0455 9.19039 15.0455 6.5C15.0455 3.80961 12.7624 1.66667 10 1.66667C7.23755 1.66667 4.95455 3.80961 4.95455 6.5ZM7.77273 6.5C7.77273 5.35972 8.74426 4.4 10 4.4C11.2557 4.4 12.2273 5.35972 12.2273 6.5C12.2273 7.64028 11.2557 8.6 10 8.6C8.74426 8.6 7.77273 7.64028 7.77273 6.5Z" stroke="#858585"/>
</svg>
