<svg width="15" height="14" viewBox="0 0 15 14" fill="none" xmlns="http://www.w3.org/2000/svg">
<path d="M1.15147 8.34784C1.15403 8.3458 1.15637 8.34395 1.1585 8.34227L1.1835 8.3238C1.24016 8.28193 1.31796 8.2525 1.425 8.2525C1.49457 8.2525 1.55798 8.2682 1.61945 8.29742L1.67229 8.32254L1.67519 8.32315C1.69484 8.33252 1.72023 8.3447 1.75106 8.35956C1.83234 8.39875 1.94758 8.4547 2.08582 8.52203C2.36212 8.6566 2.72822 8.83561 3.09377 9.01459C3.45926 9.19353 3.82392 9.3723 4.09723 9.50635L4.42731 9.66828L4.51973 9.71363L4.54406 9.72558L4.55029 9.72864L4.55187 9.72941L4.55227 9.72961L4.55236 9.72965L4.77273 9.28083L4.5524 9.72967L5.27273 10.0833V9.28083V2.33333C5.27273 2.19564 5.42967 1.95833 5.79545 1.95833C6.16124 1.95833 6.31818 2.19564 6.31818 2.33333V6.41667V6.91667H6.81818H7.5H8V6.41667V0.875C8 0.737303 8.15695 0.5 8.52273 0.5C8.88851 0.5 9.04545 0.737303 9.04545 0.875V6.41667V6.91667H9.54545H10.2273H10.7273V6.41667V1.45833C10.7273 1.32064 10.8842 1.08333 11.25 1.08333C11.6158 1.08333 11.7727 1.32064 11.7727 1.45833V6.41667V6.91667H12.2727H12.9545H13.4545V6.41667V3.20833C13.4545 3.07064 13.6115 2.83333 13.9773 2.83333C14.3431 2.83333 14.5 3.07064 14.5 3.20833V11.6667C14.5 12.6035 13.5726 13.5 12.2727 13.5H7.29545C6.66998 13.5 6.09352 13.2866 5.68008 12.9283C5.67999 12.9282 5.67989 12.9281 5.6798 12.928L0.77166 8.65931C0.873876 8.57464 0.974687 8.49144 1.05263 8.42779C1.09433 8.39373 1.12805 8.36644 1.15147 8.34784Z" stroke="#858585"/>
</svg>
